<mxfile host="app.diagrams.net" modified="2024-01-12T14:37:31.050Z" agent="Mozilla/5.0 (Macintosh; Intel Mac OS X 10_15_7) AppleWebKit/605.1.15 (KHTML, like Gecko) Version/17.1 Safari/605.1.15" version="22.1.17" etag="WRmBfUl87rnInXwu-UNk" type="github">
  <diagram name="Page-1" id="FRRHFBYsaa9lcKrXNTbh">
    <mxGraphModel>
      <root>
        <mxCell id="0" />
        <mxCell id="1" parent="0" />
      </root>
    </mxGraphModel>
  </diagram>
</mxfile>
